<svg width="65" height="65" viewBox="0 0 65 65" fill="none" xmlns="http://www.w3.org/2000/svg">
<rect width="65" height="65" fill="#001ED3"/>
<path fill-rule="evenodd" clip-rule="evenodd" d="M10 31.6875C10 20.92 19.8969 12 32.4121 12C44.9551 12 55 20.9401 55 31.6875C55 42.4288 44.962 51.375 32.4121 51.375C29.5045 51.375 26.6874 50.8964 24.0251 49.9513C21.333 52.5344 17.7119 54 13.9551 54C12.7813 54 12.196 52.5826 13.0229 51.7594C15.0007 49.7904 15.7978 46.9345 15.1413 44.2393C11.8231 40.7184 10 36.2744 10 31.6875ZM24.1713 47.2011C26.7636 48.2289 29.5362 48.7675 32.4121 48.7675C43.4132 48.7675 52.3809 41.0958 52.3809 31.6875C52.3809 22.2792 43.4132 14.6075 32.4121 14.6075C21.508 14.6075 12.6191 22.2792 12.6191 31.6875C12.6191 35.6982 14.284 39.5962 17.275 42.6633C17.4268 42.819 17.5376 43.0097 17.5972 43.2185C18.3535 45.8657 18.0359 48.6598 16.7935 51.0301C19.0484 50.4748 21.1185 49.2668 22.7109 47.5344C23.0808 47.1319 23.6622 46.9993 24.1713 47.2011Z" fill="white"/>
<path fill-rule="evenodd" clip-rule="evenodd" d="M18 32C18 29.7944 19.7944 28 22 28C24.2056 28 26 29.7944 26 32C26 34.2056 24.2056 36 22 36C19.7944 36 18 34.2056 18 32ZM20.6667 32C20.6667 32.7352 21.2648 33.3333 22 33.3333C22.7352 33.3333 23.3333 32.7352 23.3333 32C23.3333 31.2648 22.7352 30.6667 22 30.6667C21.2648 30.6667 20.6667 31.2648 20.6667 32Z" fill="white"/>
<path fill-rule="evenodd" clip-rule="evenodd" d="M28 32C28 29.7944 29.7944 28 32 28C34.2056 28 36 29.7944 36 32C36 34.2056 34.2056 36 32 36C29.7944 36 28 34.2056 28 32ZM30.6667 32C30.6667 32.7352 31.2648 33.3333 32 33.3333C32.7352 33.3333 33.3333 32.7352 33.3333 32C33.3333 31.2648 32.7352 30.6667 32 30.6667C31.2648 30.6667 30.6667 31.2648 30.6667 32Z" fill="white"/>
<path fill-rule="evenodd" clip-rule="evenodd" d="M39 32C39 29.7944 40.7944 28 43 28C45.2056 28 47 29.7944 47 32C47 34.2056 45.2056 36 43 36C40.7944 36 39 34.2056 39 32ZM41.6667 32C41.6667 32.7352 42.2648 33.3333 43 33.3333C43.7352 33.3333 44.3333 32.7352 44.3333 32C44.3333 31.2648 43.7352 30.6667 43 30.6667C42.2648 30.6667 41.6667 31.2648 41.6667 32Z" fill="white"/>
</svg>
