<svg width="65" height="65" viewBox="0 0 65 65" fill="none" xmlns="http://www.w3.org/2000/svg">
<rect width="65" height="65" fill="#D2153D"/>
<path fill-rule="evenodd" clip-rule="evenodd" d="M47.6989 37.7565L52.9203 42.9777C54.3599 44.4172 54.3599 46.7594 52.9203 48.1989L51.0216 50.0975C45.8178 55.301 37.3961 55.3006 32.1928 50.0975L15.8932 33.79C10.7022 28.5993 10.7022 20.1531 15.8934 14.9622L17.796 13.0763C19.2317 11.6406 21.574 11.6406 23.0135 13.08L28.2336 18.2834C29.6882 19.7379 29.6682 22.0729 28.235 23.506L25.8616 25.8792C24.7683 26.9724 24.7685 28.7416 25.8616 29.8347L36.1488 40.1302C37.239 41.22 39.0135 41.2203 40.1041 40.1298L42.4775 37.7565C43.9169 36.3171 46.2594 36.3171 47.6989 37.7565ZM21.2745 14.8217C20.7931 14.3405 20.0125 14.3406 19.5326 14.8204L18.6668 15.6786L25.6242 22.6357L26.4945 21.7655C26.9755 21.2845 26.9755 20.5061 26.4945 20.0251L21.2745 14.8217ZM33.9336 48.3573L17.6339 32.0497C13.6176 28.0336 13.3968 21.7274 16.9549 17.4476L23.8921 24.3845C22.0693 26.4508 22.1453 29.5994 24.1208 31.5748L34.4076 41.8698L34.4079 41.8701C36.3813 43.8435 39.5299 43.9244 41.5988 42.0992L48.5361 49.0362C44.2698 52.588 37.9775 52.4011 33.9336 48.3573ZM50.3097 47.3288L51.18 46.4585C51.6598 45.9788 51.6598 45.198 51.1799 44.7181L45.9585 39.4969C45.4785 39.017 44.6978 39.0171 44.2179 39.4969L43.3478 40.3671L50.3097 47.3288Z" fill="white"/>
</svg>
